<svg width="683" height="163" viewBox="0 0 683 163" fill="none" xmlns="http://www.w3.org/2000/svg">
<path d="M205 110V109.47L204.561 109.172C193.96 101.991 187.1 95.3512 183.343 89.2407C182.577 87.9963 181.942 86.7753 181.429 85.5766C182.774 84.5797 184.151 83.565 185.561 82.5324C203.486 69.4006 226.631 53.3889 255.837 34.0192C292.651 24.9982 337.209 18.6443 376.426 14.1811C403.459 11.1045 427.92 8.9297 445.508 7.3976C446.761 7.28845 447.979 7.18255 449.161 7.0798C456.271 6.46175 462.067 5.95787 466.201 5.54849C468.609 5.31006 470.472 5.10191 471.707 4.92002C472.316 4.83036 472.813 4.74151 473.154 4.64965C473.3 4.61007 473.524 4.54387 473.714 4.42608C473.788 4.3802 474.042 4.21907 474.171 3.88994C474.219 3.73454 474.239 3.40942 474.207 3.2394C474.157 3.09599 474.024 2.87103 473.945 2.78068C473.782 2.61282 473.599 2.53413 473.521 2.50285C473.422 2.46268 473.322 2.43465 473.236 2.41412C473.063 2.37272 472.857 2.34017 472.632 2.31258C472.178 2.25676 471.547 2.20939 470.746 2.16806C469.138 2.08514 466.767 2.02303 463.575 1.97703C457.187 1.88499 447.463 1.85693 433.872 1.86035C423.597 1.86293 411.114 1.8835 396.187 1.90808C371.604 1.94858 340.393 1.99999 301.5 1.99999L301.206 1.99999L300.958 2.1595C284.217 12.952 268.934 22.9354 255.02 32.1609C241.1 35.5827 228.278 39.3885 217.259 43.6212C207.164 47.4985 198.538 51.7501 191.953 56.4202C185.378 61.0831 180.748 66.2263 178.799 71.9172C177.387 76.0399 177.41 80.3672 179.011 84.8809C155.784 102.161 142.168 114.158 136.089 122.088C134.45 124.226 133.32 126.118 132.706 127.777C132.094 129.435 131.963 130.961 132.479 132.279C133.001 133.614 134.106 134.533 135.536 135.135C136.954 135.732 138.767 136.052 140.88 136.163C149.285 136.606 163.634 133.786 181.059 129.352C189.757 127.139 199.261 124.513 209.233 121.665C210.946 122.787 212.971 123.678 215.262 124.365C222.849 126.642 233.632 126.768 246.574 125.388C272.496 122.622 307.582 113.748 344.316 103.172C353.319 100.579 362.432 97.882 371.54 95.1445C371.726 98.1836 372.558 100.798 373.986 102.999C375.617 105.513 377.984 107.424 380.91 108.818C386.728 111.588 394.853 112.355 404.239 111.732C423.044 110.485 447.455 103.618 470.065 95.0516C492.678 86.4847 513.613 76.1717 525.463 67.9654C528.427 65.9122 530.853 63.9707 532.6 62.2017C534.311 60.4698 535.512 58.7655 535.769 57.1789C535.905 56.3424 535.78 55.5235 535.321 54.7955C534.874 54.086 534.167 53.5529 533.299 53.1557C531.588 52.3733 528.987 52 525.5 52C518.47 52 508.171 53.7791 495.6 56.7411C483.006 59.7084 468.053 63.8829 451.683 68.7136C437.728 72.8319 422.756 77.4228 407.327 82.1539C396.189 85.5689 384.814 89.057 373.411 92.4932C373.218 91.1193 372.715 89.8996 371.908 88.8458C370.86 87.4782 369.35 86.4554 367.5 85.7123C363.827 84.2372 358.619 83.7855 352.322 84.0667C339.695 84.6304 322.194 88.1728 302.592 93.1109C282.972 98.0535 261.174 104.414 239.934 110.644C238.989 110.922 238.045 111.198 237.103 111.475C227.723 114.227 218.476 116.94 209.597 119.48C208.903 118.962 208.288 118.401 207.752 117.797C205.967 115.787 205 113.234 205 110Z" stroke="white" stroke-width="2"/>
<path d="M299.806 1.43283C270.579 2.3185 242.001 9.14036 212.579 9.91873C156.548 11.401 100.103 8.60906 44.2421 14.2604C26.3039 16.0751 -4.3703 20.1439 1.91127 46.5265C8.22524 73.0452 39.7485 89.216 62.2993 99.0207C101.759 116.177 143.16 126.312 185.444 133.655C274.625 149.142 363.561 161.284 454.328 161.284" stroke="white" stroke-width="2" stroke-linecap="round"/>
<path d="M353.953 39.625C353.927 39.8203 353.842 39.9766 353.699 40.0938C353.556 40.2109 353.393 40.2695 353.211 40.2695C353.185 40.2695 353.139 40.2695 353.074 40.2695C353.009 40.2565 352.859 40.25 352.625 40.25C352.378 40.25 352.059 40.276 351.668 40.3281C351.29 40.3802 350.867 40.4909 350.398 40.6602C349.943 40.8164 349.461 41.0508 348.953 41.3633C348.458 41.6758 347.97 42.099 347.488 42.6328C347.007 43.1536 346.551 43.8047 346.121 44.5859C345.691 45.3542 345.327 46.2852 345.027 47.3789C344.871 47.9258 344.689 48.7135 344.48 49.7422C344.285 50.7578 344.07 51.9036 343.836 53.1797C343.615 54.4557 343.387 55.8164 343.152 57.2617C342.931 58.707 342.716 60.1263 342.508 61.5195C342.312 62.9128 342.13 64.2409 341.961 65.5039C341.792 66.7539 341.661 67.8281 341.57 68.7266C341.544 68.8958 341.466 69.0456 341.336 69.1758C341.219 69.319 341.069 69.3906 340.887 69.3906C340.704 69.3906 340.542 69.3451 340.398 69.2539C340.268 69.1628 340.177 69.026 340.125 68.8438C339.956 68.2188 339.689 67.3529 339.324 66.2461C338.96 65.1393 338.536 63.8958 338.055 62.5156C337.586 61.1224 337.072 59.6445 336.512 58.082C335.952 56.5195 335.392 54.9766 334.832 53.4531C334.285 51.9167 333.751 50.4518 333.23 49.0586C332.723 47.6523 332.273 46.4154 331.883 45.3477C331.818 46.0768 331.714 46.8906 331.57 47.7891C331.44 48.6745 331.258 49.6315 331.023 50.6602C330.802 51.6758 330.522 52.7565 330.184 53.9023C329.845 55.0352 329.441 56.2135 328.973 57.4375C328.243 59.3125 327.384 60.9141 326.395 62.2422C325.418 63.5703 324.389 64.6771 323.309 65.5625C322.228 66.4479 321.128 67.151 320.008 67.6719C318.901 68.1797 317.859 68.5638 316.883 68.8242C315.906 69.0846 315.027 69.2474 314.246 69.3125C313.465 69.3906 312.866 69.4297 312.449 69.4297C311.017 69.4297 309.695 69.2409 308.484 68.8633C307.286 68.4857 306.245 67.9518 305.359 67.2617C304.487 66.5586 303.803 65.7253 303.309 64.7617C302.827 63.7852 302.586 62.7109 302.586 61.5391C302.586 60.4844 302.82 59.5013 303.289 58.5898C303.771 57.6654 304.409 56.8646 305.203 56.1875C306.01 55.5104 306.928 54.9766 307.957 54.5859C308.999 54.1953 310.079 54 311.199 54C312.124 54 312.951 54.0911 313.68 54.2734C314.422 54.4557 315.073 54.6901 315.633 54.9766C316.206 55.25 316.694 55.5495 317.098 55.875C317.514 56.2005 317.853 56.513 318.113 56.8125C318.387 57.099 318.589 57.3464 318.719 57.5547C318.862 57.763 318.947 57.8867 318.973 57.9258C319.025 58.0299 319.051 58.1471 319.051 58.2773C319.051 58.4596 318.979 58.6289 318.836 58.7852C318.706 58.9414 318.53 59.0195 318.309 59.0195C318.022 59.0195 317.807 58.8893 317.664 58.6289C317.651 58.5898 317.521 58.4076 317.273 58.082C317.039 57.7435 316.668 57.3789 316.16 56.9883C315.665 56.5977 315.021 56.2461 314.227 55.9336C313.432 55.6081 312.469 55.4453 311.336 55.4453C310.411 55.4453 309.507 55.6016 308.621 55.9141C307.749 56.2266 306.974 56.6562 306.297 57.2031C305.62 57.75 305.073 58.401 304.656 59.1562C304.253 59.8984 304.051 60.7057 304.051 61.5781C304.051 62.5286 304.272 63.401 304.715 64.1953C305.158 64.9766 305.757 65.6471 306.512 66.207C307.28 66.7669 308.165 67.2031 309.168 67.5156C310.184 67.8151 311.264 67.9648 312.41 67.9648C312.853 67.9648 313.439 67.9323 314.168 67.8672C314.897 67.8021 315.711 67.6523 316.609 67.418C317.521 67.1836 318.478 66.832 319.48 66.3633C320.483 65.8815 321.473 65.2305 322.449 64.4102C323.426 63.5898 324.357 62.5677 325.242 61.3438C326.141 60.1198 326.928 58.6354 327.605 56.8906C328.309 55.0938 328.855 53.388 329.246 51.7734C329.65 50.1458 329.949 48.681 330.145 47.3789C330.34 46.0768 330.457 44.9701 330.496 44.0586C330.548 43.1341 330.574 42.4766 330.574 42.0859V41.6953C330.574 41.487 330.639 41.3112 330.77 41.168C330.913 41.0117 331.095 40.9336 331.316 40.9336C331.642 40.9336 331.87 41.0964 332 41.4219C332.039 41.513 332.15 41.819 332.332 42.3398C332.527 42.8607 332.775 43.5378 333.074 44.3711C333.387 45.1914 333.738 46.1419 334.129 47.2227C334.533 48.3034 334.956 49.4557 335.398 50.6797C335.841 51.8906 336.297 53.1471 336.766 54.4492C337.234 55.7513 337.69 57.0339 338.133 58.2969C338.589 59.5599 339.018 60.7773 339.422 61.9492C339.826 63.1211 340.19 64.1888 340.516 65.1523C340.659 64.1107 340.815 63.0104 340.984 61.8516C341.154 60.6797 341.329 59.5013 341.512 58.3164C341.707 57.1185 341.896 55.9466 342.078 54.8008C342.273 53.6549 342.462 52.5807 342.645 51.5781C342.84 50.5755 343.016 49.6771 343.172 48.8828C343.328 48.0885 343.471 47.4505 343.602 46.9688C343.888 45.8229 344.298 44.7552 344.832 43.7656C345.366 42.763 346.01 41.8906 346.766 41.1484C347.534 40.4062 348.406 39.8268 349.383 39.4102C350.372 38.9805 351.466 38.7656 352.664 38.7656C353.12 38.7656 353.445 38.8177 353.641 38.9219C353.849 39.026 353.953 39.2279 353.953 39.5273V39.625ZM383.504 43.8828C383.53 43.987 383.543 44.0716 383.543 44.1367C383.543 44.3971 383.445 44.5924 383.25 44.7227C381.987 45.6992 380.639 46.7409 379.207 47.8477C377.788 48.9414 376.336 50.0742 374.852 51.2461C373.38 52.4049 371.896 53.5768 370.398 54.7617C368.914 55.9336 367.475 57.0859 366.082 58.2188C364.689 59.3385 363.361 60.4193 362.098 61.4609C360.848 62.5026 359.715 63.4596 358.699 64.332C357.684 65.1914 356.811 65.9596 356.082 66.6367C355.353 67.3008 354.819 67.8281 354.48 68.2188C355.079 68.1276 355.835 68.0039 356.746 67.8477C357.671 67.6914 358.764 67.5482 360.027 67.418C361.29 67.2747 362.716 67.151 364.305 67.0469C365.906 66.9427 367.677 66.8906 369.617 66.8906C371.44 66.8906 373.38 66.9688 375.438 67.125C377.508 67.2682 379.721 67.5286 382.078 67.9062C382.26 67.9323 382.41 68.0104 382.527 68.1406C382.645 68.2708 382.703 68.4271 382.703 68.6094C382.703 68.8307 382.632 69.013 382.488 69.1562C382.345 69.3125 382.169 69.3906 381.961 69.3906C381.909 69.3906 381.85 69.3841 381.785 69.3711C379.467 68.9935 377.299 68.7331 375.281 68.5898C373.276 68.4336 371.382 68.3555 369.598 68.3555C368.035 68.3555 366.564 68.3945 365.184 68.4727C363.803 68.5508 362.534 68.6419 361.375 68.7461C360.216 68.8503 359.174 68.9609 358.25 69.0781C357.326 69.2083 356.538 69.319 355.887 69.4102C355.691 69.4362 355.49 69.4688 355.281 69.5078C355.073 69.5469 354.871 69.5794 354.676 69.6055C354.48 69.6315 354.298 69.651 354.129 69.6641C353.973 69.6901 353.849 69.7031 353.758 69.7031C353.445 69.7031 353.165 69.6185 352.918 69.4492C352.671 69.293 352.547 69.0456 352.547 68.707C352.547 68.5247 352.586 68.3359 352.664 68.1406C352.755 67.9453 352.911 67.737 353.133 67.5156C353.536 67.0729 354.057 66.5456 354.695 65.9336C355.346 65.3086 356.206 64.5339 357.273 63.6094C357.885 63.0755 358.628 62.4505 359.5 61.7344C360.372 61.0052 361.323 60.2174 362.352 59.3711C363.393 58.5247 364.487 57.6458 365.633 56.7344C366.779 55.8099 367.938 54.8854 369.109 53.9609C370.281 53.0234 371.434 52.1055 372.566 51.207C373.699 50.2956 374.773 49.4427 375.789 48.6484C376.805 47.8542 377.729 47.1315 378.562 46.4805C379.409 45.8164 380.118 45.263 380.691 44.8203C379.298 44.7292 377.885 44.5859 376.453 44.3906C375.034 44.1823 373.634 43.9544 372.254 43.707C370.874 43.4596 369.526 43.2057 368.211 42.9453C366.896 42.6849 365.646 42.4505 364.461 42.2422C363.289 42.0208 362.195 41.8451 361.18 41.7148C360.164 41.5716 359.266 41.5 358.484 41.5C357.26 41.5 356.115 41.6497 355.047 41.9492C353.992 42.2487 353.068 42.6784 352.273 43.2383C351.492 43.7982 350.874 44.4688 350.418 45.25C349.975 46.0312 349.754 46.8971 349.754 47.8477C349.754 48.4987 349.865 49.1172 350.086 49.7031C350.307 50.2891 350.639 50.8034 351.082 51.2461C351.538 51.6888 352.091 52.0404 352.742 52.3008C353.406 52.5482 354.181 52.6719 355.066 52.6719C355.926 52.6719 356.772 52.5286 357.605 52.2422C358.439 51.9557 359.214 51.5326 359.93 50.9727C360.073 50.8685 360.223 50.8164 360.379 50.8164C360.574 50.8164 360.743 50.888 360.887 51.0312C361.043 51.1615 361.121 51.3307 361.121 51.5391C361.121 51.7865 361.03 51.9818 360.848 52.125C360.001 52.7891 359.077 53.2904 358.074 53.6289C357.085 53.9674 356.082 54.1367 355.066 54.1367C353.934 54.1367 352.944 53.9674 352.098 53.6289C351.251 53.2773 350.542 52.8151 349.969 52.2422C349.409 51.6693 348.986 51.0052 348.699 50.25C348.426 49.4818 348.289 48.681 348.289 47.8477C348.289 46.6628 348.549 45.5885 349.07 44.625C349.604 43.6615 350.333 42.8411 351.258 42.1641C352.182 41.487 353.263 40.9661 354.5 40.6016C355.75 40.224 357.091 40.0352 358.523 40.0352C359.448 40.0352 360.477 40.1133 361.609 40.2695C362.742 40.4258 363.947 40.6211 365.223 40.8555C366.512 41.0898 367.853 41.3503 369.246 41.6367C370.652 41.9102 372.085 42.1706 373.543 42.418C375.001 42.6654 376.466 42.8802 377.938 43.0625C379.422 43.2448 380.893 43.3555 382.352 43.3945H382.781C382.938 43.3945 383.081 43.4401 383.211 43.5312C383.341 43.6224 383.439 43.7396 383.504 43.8828Z" fill="#7BC0FF"/>
</svg>
